<svg xmlns="http://www.w3.org/2000/svg" version="1.1" xmlns:xlink="http://www.w3.org/1999/xlink" xmlns:svgjs="http://svgjs.dev/svgjs" width="1000" height="295" viewBox="0 0 1000 295"><g transform="matrix(1,0,0,1,-0.6060593601987421,-0.42116659071427875)"><svg viewBox="0 0 396 117" data-background-color="#ffffff" preserveAspectRatio="xMidYMid meet" height="295" width="1000" xmlns="http://www.w3.org/2000/svg" xmlns:xlink="http://www.w3.org/1999/xlink"><g id="tight-bounds" transform="matrix(1,0,0,1,0.2399995066386964,0.16703895292735638)"><svg viewBox="0 0 395.52 116.66592209414527" height="116.66592209414527" width="395.52"><g><svg viewBox="0 0 957.0758192810014 282.30717276099205" height="116.66592209414527" width="395.52"><g><svg viewBox="0 0 957.0758192810014 282.30717276099205" height="282.30717276099205" width="957.0758192810014"><g><svg viewBox="0 0 957.0758192810014 282.30717276099205" height="282.30717276099205" width="957.0758192810014"><g><svg viewBox="0 0 957.0758192810014 245.672304" height="245.672304" width="957.0758192810014"><g><svg><g></g><g></g></svg></g><g><svg><g><svg></svg></g><g></g></svg></g><g id="text-0"><svg viewBox="0 0 957.0758192810014 245.672304" height="245.672304" width="957.0758192810014"><g transform="matrix(1,0,0,1,0,101.13907424521469)"><svg width="245.672304" viewBox="3 -33.25 193.27999877929688 33.75" height="42.89415550957062" data-palette-color="#755bb4"><path d="M9.6 0L3 0 3-32.75 9.7-32.75Q13.4-32.75 15.78-32.02 18.15-31.3 19.8-29.45 21.45-27.6 22.18-24.43 22.9-21.25 22.9-16.38 22.9-11.5 22.1-8.28 21.3-5.05 19.55-3.25 17.8-1.45 15.45-0.73 13.1 0 9.6 0L9.6 0ZM15.58-3.6Q17.7-4.7 18.82-7.73 19.95-10.75 19.95-16.38 19.95-22 18.85-25.03 17.75-28.05 15.65-29.15 13.55-30.25 9.7-30.25L9.7-30.25 5.75-30.25 5.75-2.5 9.6-2.5Q13.45-2.5 15.58-3.6ZM44.5 0L30.55 0 30.55-2.5 36.2-2.5 36.2-30.25 30.55-30.25 30.55-32.75 44.5-32.75 44.5-30.25 38.95-30.25 38.95-2.5 44.5-2.5 44.5 0ZM61.32-15.73Q56.85-16.8 54.77-18.88 52.7-20.95 52.7-24.9 52.7-28.85 55.42-31.05 58.15-33.25 62.45-33.25 66.75-33.25 71.2-31.7L71.2-31.7 70.5-29.15Q66.34-30.65 62.87-30.65 59.4-30.65 57.55-29.18 55.7-27.7 55.7-24.9 55.7-22.1 57.2-20.65 58.7-19.2 63.17-18.03 67.65-16.85 69.65-14.93 71.65-13 71.65-8.72 71.65-4.45 68.77-1.98 65.9 0.5 61.35 0.5L61.35 0.5Q57.95 0.5 52.75-0.95L52.75-0.95 53.4-3.5Q58.5-2.1 61.6-2.1 64.7-2.1 66.7-3.83 68.7-5.55 68.7-8.65 68.7-11.75 67.25-13.2 65.8-14.65 61.32-15.73ZM89.04 0.5Q83.34 0.5 80.54-3.5 77.74-7.5 77.74-16.35 77.74-25.2 80.44-29.23 83.14-33.25 89.09-33.25L89.09-33.25Q92.99-33.25 96.94-32L96.94-32 96.94-25.4 94.19-25.4 94.19-29.85Q91.99-30.65 89.09-30.65L89.09-30.65Q84.59-30.65 82.64-27.3 80.69-23.95 80.69-16.45 80.69-8.95 82.79-5.55 84.89-2.15 89.09-2.15L89.09-2.15Q92.24-2.15 96.59-3.5L96.59-3.5 97.24-0.9Q93.14 0.5 89.04 0.5L89.04 0.5ZM113.39-13.45L113.39-13.45Q110.69-13.3 109.89-13.3L109.89-13.3 105.79-13.3 105.79 0 103.04 0 103.04-32.75 110.39-32.75Q116.49-32.75 119.34-30.65 122.19-28.55 122.19-23.25L122.19-23.25Q122.19-19.7 120.77-17.55 119.34-15.4 116.19-14.05L116.19-14.05Q119.59-7.6 122.39 0L122.39 0 119.39 0Q116.64-7.3 113.39-13.45ZM110.29-30.25L110.29-30.25 105.79-30.25 105.79-15.8 109.79-15.8Q114.39-15.8 116.84-17.48 119.29-19.15 119.29-23.25 119.29-27.35 117.12-28.8 114.94-30.25 110.29-30.25ZM146.29 0L129.09 0 129.09-32.75 146.14-32.75 146.14-30.3 131.84-30.3 131.84-17.9 144.79-17.9 144.79-15.45 131.84-15.45 131.84-2.45 146.29-2.45 146.29 0ZM161.04-30.2L152.39-30.2 152.39-32.75 172.49-32.75 172.49-30.2 163.79-30.2 163.79 0 161.04 0 161.04-30.2ZM196.28 0L179.08 0 179.08-32.75 196.13-32.75 196.13-30.3 181.83-30.3 181.83-17.9 194.78-17.9 194.78-15.45 181.83-15.45 181.83-2.45 196.28-2.45 196.28 0Z" opacity="1" transform="matrix(1,0,0,1,0,0)" fill="#755bb4" class="undefined-k-0"></path></svg></g><g><svg xmlns="http://www.w3.org/2000/svg" xmlns:xlink="http://www.w3.org/1999/xlink" version="1.1" x="258.564804" y="0" viewBox="0 0 512 512" enable-background="new 0 0 512 512" xml:space="preserve" height="245.672304" width="245.672304" class="icon-s-0" data-fill-palette-color="accent" id="s-0"><path d="M153.422 16h-26.359V0h26.359V16zM100.719 0H74.359v16h26.359V0zM416.938 0h-26.344v16h26.344V0zM364.25 0h-26.375v16h26.375V0zM469.656 0h-26.375v16h26.375V0zM311.531 0h-26.359v16h26.359V0zM206.125 0h-26.359v16h26.359V0zM496 480H264v-16h-16v16H32V264h16v-16H32V16h16V0H32 0v512h512v-32-16h-16V480zM496 437.625h16v-26.344h-16V437.625zM496 384.938h16v-26.375h-16V384.938zM496 68.719h16V42.344h-16V68.719zM496 121.406h16V95.063h-16V121.406zM496 226.813h16v-26.344h-16V226.813zM496 332.25h16v-26.375h-16V332.25zM496 174.125h16V147.75h-16V174.125zM496 0v16h16V0H496zM248 437.625h16v-26.344h-16V437.625zM264 358.563h-16v26.375h16V358.563zM248 121.406h16V95.063h-16V121.406zM264 253.188h-5.188V248h-26.344v16H248v15.531h16V253.188zM264 42.344h-16v26.375h16V42.344zM264 305.875h-16v26.375h16V305.875zM258.828 16H264V0h-5.172H248h-15.531v16H248 258.828zM100.719 248H74.359v16h26.359V248zM469.656 264v-16h-26.375v16H469.656zM496 253.188V264v15.531h16V264v-10.813V248h-16V253.188zM234.922 209.719L248 220.188v6.625h8.313l28.875 23.125V264h17.594l98.781 79.031 77.219-270.219-61.563-17.625-50.781 177.781L264 151v-3.25h-4.094l-46.828-37.469L144.219 248h-17.156v16h9.156L67.375 401.688l57.25 28.625L234.922 209.719z" fill="#755bb4" data-fill-palette-color="accent"></path></svg></g><g transform="matrix(1,0,0,1,517.129608,46.673410063999995)"><svg width="439.9462112810015" viewBox="2.4000000953674316 -32.75 94.88999938964844 32.75" height="151.825483872" data-palette-color="#755bb4"><path d="M5.1 0L2.4 0 2.4-32.75 5.05-32.75 12.1-14.4 12.85-14.4 19.9-32.75 22.55-32.75 22.55 0 19.85 0 19.85-25.4 19.65-25.4 14.4-11.85 10.55-11.85 5.3-25.45 5.1-25.45 5.1 0ZM28.75 0L25.85 0 35.25-32.75 40.05-32.75 49.1 0 46.15 0 44.1-7.55 30.85-7.55 28.75 0ZM31.55-10.05L43.45-10.05 38.05-30.25 37.2-30.25 31.55-10.05ZM61.05-30.2L52.4-30.2 52.4-32.75 72.5-32.75 72.5-30.2 63.8-30.2 63.8 0 61.05 0 61.05-30.2ZM80.44 0L77.69 0 77.69-32.75 80.44-32.75 80.44-17.55 94.54-17.55 94.54-32.75 97.29-32.75 97.29 0 94.54 0 94.54-15 80.44-15 80.44 0Z" opacity="1" transform="matrix(1,0,0,1,0,0)" fill="#755bb4" class="undefined-k-1"></path></svg></g></svg></g></svg></g><g transform="matrix(1,0,0,1,379.3840951627795,255.7985846560774)"><svg viewBox="0 0 198.30762895544237 26.508588104914644" height="26.508588104914644" width="198.30762895544237"><g transform="matrix(1,0,0,1,0,0)"><svg width="198.30762895544237" viewBox="3 -33.5 254.32998657226562 34" height="26.508588104914644" data-palette-color="#755bb4"><path d="M14.1 0L3 0 3-0.8 6.95-2.8 8-30.15 3.7-32.2 3.7-33 12.95-33 24.5-6.4 36-33 44.8-33 44.8-32.2 40.6-30.2 41.45-2.8 44.95-0.8 44.95 0 33.45 0 33.45-0.8 37.15-2.75 36.65-27.4 24.7 0.25 22.45 0.25 10.7-27.05 10.05-2.75 14.1-0.8 14.1 0ZM60.4 0L49.6 0 49.6-0.8 52.8-2.45 65.6-33.25 67.85-33.25 80.45-2.6 83.8-0.8 83.8 0 71.4 0 71.4-0.8 75.8-2.5 72.05-11.75 59.9-11.75 56.2-2.5 60.4-0.8 60.4 0ZM66-26.8L61.05-14.5 70.95-14.5 66-26.8ZM109.55 0L95.05 0 95.05-0.8 100.05-2.8 100.05-30.25 91.9-30.25 88.5-22.9 87.7-22.9 87.7-33 116.9-33 116.9-22.9 116.1-22.9 112.7-30.25 104.55-30.25 104.55-2.8 109.55-0.8 109.55 0ZM134.89 0L122.39 0 122.39-0.8 126.39-2.8 126.39-30.2 122.39-32.2 122.39-33 134.89-33 134.89-32.2 130.89-30.2 130.89-18.4 147.89-18.4 147.89-30.2 143.89-32.2 143.89-33 156.39-33 156.39-32.2 152.39-30.2 152.39-2.8 156.39-0.8 156.39 0 143.89 0 143.89-0.8 147.89-2.8 147.89-15.65 130.89-15.65 130.89-2.8 134.89-0.8 134.89 0ZM182.24 0L162.24 0 162.24-1.25Q166.59-6.25 169.39-9.6 172.19-12.95 173.77-15.18 175.34-17.4 176.07-18.95 176.79-20.5 176.97-21.78 177.14-23.05 177.14-24.55L177.14-24.55Q177.14-27.6 175.54-29.38 173.94-31.15 171.64-31.15L171.64-31.15Q169.04-31.15 167.64-29.78 166.24-28.4 166.24-25.65L166.24-25.65 166.24-23.4 165.99-23.05 163.69-23.05Q162.69-23.05 162.19-23.4 161.69-23.75 161.69-25.15L161.69-25.15Q161.69-26.45 162.47-27.83 163.24-29.2 164.84-30.3L164.84-30.3Q166.14-31.2 167.32-31.93 168.49-32.65 169.87-33.08 171.24-33.5 173.19-33.5L173.19-33.5Q175.74-33.5 177.72-32.3 179.69-31.1 180.84-29.1 181.99-27.1 181.99-24.65L181.99-24.65Q181.99-23 181.59-21.63 181.19-20.25 180.27-18.8 179.34-17.35 177.72-15.43 176.09-13.5 173.62-10.78 171.14-8.05 167.69-4.1L167.69-4.1 179.44-4.1 181.94-8.95 182.74-8.95 182.24 0ZM207.04 0L194.29 0 194.29-0.8 198.79-2.8 198.79-9.65 185.04-9.65 185.04-10.65 202.04-33 203.04-33 203.04-13 208.99-13 208.99-9.65 203.04-9.65 203.04-2.8 207.04-0.8 207.04 0ZM198.79-25.25L189.79-13 198.79-13 198.79-25.25ZM230.04 0L217.29 0 217.29-0.8 221.79-2.8 221.79-28.15 213.04-23.75 213.04-25.5 225.04-33 226.04-33 226.04-2.8 230.04-0.8 230.04 0ZM244.33 0.5L244.33 0.5Q239.38 0.5 237.78-1.8L237.78-1.8Q237.38-2.35 237.38-2.8L237.38-2.8Q237.38-3.5 238.28-4.15L238.28-4.15 240.03-5.5 240.53-5.5 241.03-4.65Q241.73-3.5 243.06-2.73 244.38-1.95 246.38-1.95L246.38-1.95Q249.43-1.95 251.56-4.05 253.68-6.15 253.68-9.75L253.68-9.75Q253.68-11.75 252.81-13.58 251.93-15.4 249.78-16.55 247.63-17.7 243.78-17.7L243.78-17.7Q241.73-17.7 238.93-17.25L238.93-17.25 238.93-33 254.88-33 254.88-29.15 241.33-29.15 241.33-21.5Q242.93-21.65 244.28-21.65L244.28-21.65Q249.18-21.65 252.03-20.15 254.88-18.65 256.11-16.38 257.33-14.1 257.33-11.65L257.33-11.65Q257.33-7.9 255.66-5.18 253.98-2.45 251.06-0.98 248.13 0.5 244.33 0.5Z" opacity="1" transform="matrix(1,0,0,1,0,0)" fill="#755bb4" class="undefined-text-1" data-fill-palette-color="secondary" id="text-1"></path></svg></g></svg></g></svg></g></svg></g><g></g></svg></g><defs></defs></svg><rect width="395.52" height="116.66592209414527" fill="none" stroke="none" visibility="hidden"></rect></g></svg></g></svg>